<?xml version="1.0" encoding="UTF-8"?>
<svg width="140px" height="99px" viewBox="0 0 140 99" version="1.1" xmlns="http://www.w3.org/2000/svg" xmlns:xlink="http://www.w3.org/1999/xlink">
    <!-- Generator: Sketch 51.2 (57519) - http://www.bohemiancoding.com/sketch -->
    <title>cloud</title>
    <desc>Created with Sketch.</desc>
    <defs></defs>
    <g id="Page-1" stroke="none" stroke-width="1" fill="none" fill-rule="evenodd">
        <g id="cloud" fill="#D8D8D8" fill-rule="nonzero">
            <g transform="translate(0.000000, 0.697298)" id="Shape">
                <path d="M59.5,7 C72.68625,7 83.9779063,15.103375 88.6725,26.600875 C91.8684375,23.1573125 96.4313438,21 101.5,21 C111.165031,21 119,28.8349688 119,38.5 C119,42.5578125 117.615094,46.290125 115.297219,49.2583437 C125.328656,50.8403438 133,59.5238437 133,70 C133,81.5979062 123.597906,91 112,91 L31.5,91 C17.969,91 7,80.031 7,66.5 C7,54.0815625 16.24,43.8224063 28.219625,42.2191875 C28.0738435,40.9848116 28.0005095,39.7429545 28,38.5 C28,21.1030313 42.1030313,7 59.5,7 Z M59.5,6.21724894e-15 C38.840375,6.21724894e-15 21.9299063,16.2946875 21.0371875,36.7843438 C8.56865625,41.176625 0,52.997 0,66.5 C0,83.9087812 14.088375,98 31.5,98 L112,98 C127.474375,98 140,85.4767812 140,70 C140,59.724 134.352969,50.1416563 125.067688,45.23575 C125.684562,43.0714375 126,40.8124062 126,38.5 C126,24.9598125 115.042375,14 101.5,14 C97.8394375,14 94.3035625,14.7942813 91.0041562,16.3592188 C84.0844375,6.5156875 72.55675,7.88860905e-31 59.5,6.21724894e-15 Z"></path>
            </g>
        </g>
    </g>
</svg>