<?xml version="1.0" encoding="UTF-8"?>
<svg width="240px" height="240px" viewBox="0 0 240 240" version="1.1" xmlns="http://www.w3.org/2000/svg" xmlns:xlink="http://www.w3.org/1999/xlink">
    <!-- Generator: Sketch 49.2 (51160) - http://www.bohemiancoding.com/sketch -->
    <title>connecting</title>
    <desc>Created with Sketch.</desc>
    <defs></defs>
    <g id="connecting" stroke="none" stroke-width="1" fill="none" fill-rule="evenodd">
        <g id="watch" transform="translate(68.000000, 50.000000)" fill="#D8D8D8" fill-rule="nonzero">
            <path d="M87.4118832,30.8710938 L87.4118832,6.5625 C87.4118832,2.953125 84.4617321,0 80.8559919,0 L24.0382679,0 C20.4325277,0 17.4823766,2.953125 17.4823766,6.5625 L17.4823766,30.8710938 C6.74710473,40.4960938 0,54.4414062 0,70 C0,85.5585938 6.74710473,99.5039062 17.4823766,109.128906 L17.4823766,133.4375 C17.4823766,137.046875 20.4325277,140 24.0382679,140 L80.8559919,140 C84.4617321,140 87.4118832,137.046875 87.4118832,133.4375 L87.4118832,109.128906 C98.1471551,99.5039063 104.89426,85.5585938 104.89426,70 C104.89426,54.4414062 98.1471551,40.4960938 87.4118832,30.8710938 Z M26.223565,8.75 L78.6706949,8.75 L78.6706949,24.5273437 C70.9675227,20.0429687 62.0078046,17.5 52.4471299,17.5 C42.8864552,17.5 33.9267372,20.0429687 26.223565,24.5273437 L26.223565,8.75 Z M78.6706949,131.25 L26.223565,131.25 L26.223565,115.472656 C33.9267372,119.929687 42.8864552,122.5 52.4471299,122.5 C62.0078046,122.5 70.9675227,119.929687 78.6706949,115.472656 L78.6706949,131.25 Z M52.4471299,113.75 C28.2449648,113.75 8.74118832,94.1171875 8.74118832,70 C8.74118832,45.8828125 28.272281,26.25 52.4471299,26.25 C76.5946626,26.25 96.1530715,45.828125 96.1530715,70 C96.1530715,94.171875 76.5946626,113.75 52.4471299,113.75 Z" id="Shape"></path>
        </g>
    </g>
</svg>