<svg width="170px" height="174px" viewBox="0 0 170 174" version="1.1" xmlns="http://www.w3.org/2000/svg" xmlns:xlink="http://www.w3.org/1999/xlink">
    <g stroke="none" stroke-width="1" fill="none" fill-rule="evenodd">
        <g id="connected-to-host" transform="translate(-37.000000, -35.000000)" fill="#D8D8D8" fill-rule="nonzero">
            <g transform="translate(37.000000, 35.000000)">
                <g>
                    <path d="M58.5245902,93.1894484 C58.5245902,97.9184652 62.147541,101.534772 66.8852459,101.534772 L105.901639,101.534772 C110.639344,101.534772 114.262295,97.9184652 114.262295,93.1894484 L114.262295,87.6258993 C114.262295,85.4004796 113.42623,83.4532374 112.032787,82.0623501 C113.42623,80.6714628 114.262295,78.7242206 114.262295,76.498801 L114.262295,54.2446043 C114.262295,49.5155875 110.639344,45.8992806 105.901639,45.8992806 L66.8852459,45.8992806 C62.147541,45.8992806 58.5245902,49.5155875 58.5245902,54.2446043 L58.5245902,76.498801 C58.5245902,78.7242206 59.3606557,80.6714628 60.7540984,82.0623501 C59.3606557,83.4532374 58.5245902,85.4004796 58.5245902,87.6258993 L58.5245902,93.1894484 Z M108.688525,93.1894484 C108.688525,94.8585132 107.57377,95.971223 105.901639,95.971223 L66.8852459,95.971223 C65.2131148,95.971223 64.0983607,94.8585132 64.0983607,93.1894484 L64.0983607,87.6258993 C64.0983607,85.9568345 65.2131148,84.8441247 66.8852459,84.8441247 L105.901639,84.8441247 C107.57377,84.8441247 108.688525,85.9568345 108.688525,87.6258993 L108.688525,93.1894484 Z M64.0983607,54.2446043 C64.0983607,52.5755396 65.2131148,51.4628297 66.8852459,51.4628297 L105.901639,51.4628297 C107.57377,51.4628297 108.688525,52.5755396 108.688525,54.2446043 L108.688525,76.498801 C108.688525,78.1678657 107.57377,79.2805755 105.901639,79.2805755 L66.8852459,79.2805755 C65.2131148,79.2805755 64.0983607,78.1678657 64.0983607,76.498801 L64.0983607,54.2446043 Z" id="Shape"></path>
                    <rect id="Rectangle-path" x="66.8852459" y="87.6258993" width="27.8688525" height="5.56354916"></rect>
                    <rect id="Rectangle-path" x="100.606557" y="87.6258993" width="5.29508197" height="5.56354916"></rect>
                    <path d="M86.3934426,129.352518 C75.2459016,129.352518 64.0983607,133.247002 64.0983607,140.479616 L64.0983607,159.952038 C64.0983607,167.741007 73.852459,173.860911 86.3934426,173.860911 C98.9344262,173.860911 108.688525,167.741007 108.688525,159.952038 L108.688525,140.479616 C108.688525,133.247002 97.5409836,129.352518 86.3934426,129.352518 Z M86.3934426,168.297362 C76.6393443,168.297362 69.6721311,163.846523 69.6721311,159.952038 L69.6721311,158.004796 C73.852459,160.786571 79.704918,162.733813 86.3934426,162.733813 C93.0819672,162.733813 98.9344262,161.064748 103.114754,158.004796 L103.114754,159.952038 C103.114754,163.846523 96.147541,168.297362 86.3934426,168.297362 Z M86.3934426,157.170264 C76.6393443,157.170264 69.6721311,152.719424 69.6721311,148.82494 L69.6721311,147.990408 C73.852459,150.215827 80.2622951,151.606715 86.3934426,151.606715 C92.5245902,151.606715 98.9344262,150.494005 103.114754,147.990408 L103.114754,148.82494 C103.114754,152.719424 96.147541,157.170264 86.3934426,157.170264 Z M86.3934426,146.043165 C76.0819672,146.043165 69.6721311,142.426859 69.6721311,140.479616 C69.6721311,138.532374 76.0819672,134.916067 86.3934426,134.916067 C96.704918,134.916067 103.114754,138.532374 103.114754,140.479616 C103.114754,142.426859 96.704918,146.043165 86.3934426,146.043165 Z" id="Shape"></path>
                    <path d="M144.918033,129.352518 C133.770492,129.352518 122.622951,133.247002 122.622951,140.479616 L122.622951,159.952038 C122.622951,167.741007 132.377049,173.860911 144.918033,173.860911 C157.459016,173.860911 167.213115,167.741007 167.213115,159.952038 L167.213115,140.479616 C167.213115,133.247002 156.065574,129.352518 144.918033,129.352518 Z M144.918033,168.297362 C135.163934,168.297362 128.196721,163.846523 128.196721,159.952038 L128.196721,158.004796 C132.377049,160.786571 138.229508,162.733813 144.918033,162.733813 C151.606557,162.733813 157.459016,161.064748 161.639344,158.004796 L161.639344,159.952038 C161.639344,163.846523 154.672131,168.297362 144.918033,168.297362 Z M144.918033,157.170264 C135.163934,157.170264 128.196721,152.719424 128.196721,148.82494 L128.196721,147.990408 C132.377049,150.215827 138.786885,151.606715 144.918033,151.606715 C151.04918,151.606715 157.459016,150.494005 161.639344,147.990408 L161.639344,148.82494 C161.639344,152.719424 154.672131,157.170264 144.918033,157.170264 Z M144.918033,146.043165 C134.606557,146.043165 128.196721,142.426859 128.196721,140.479616 C128.196721,138.532374 134.606557,134.916067 144.918033,134.916067 C155.229508,134.916067 161.639344,138.532374 161.639344,140.479616 C161.639344,142.426859 155.229508,146.043165 144.918033,146.043165 Z" id="Shape"></path>
                    <path d="M27.8688525,129.352518 C16.7213115,129.352518 5.57377049,133.247002 5.57377049,140.479616 L5.57377049,159.952038 C5.57377049,167.741007 15.3278689,173.860911 27.8688525,173.860911 C40.4098361,173.860911 50.1639344,167.741007 50.1639344,159.952038 L50.1639344,140.479616 C50.1639344,133.247002 39.0163934,129.352518 27.8688525,129.352518 Z M27.8688525,168.297362 C18.1147541,168.297362 11.147541,163.846523 11.147541,159.952038 L11.147541,158.004796 C15.3278689,160.786571 21.1803279,162.733813 27.8688525,162.733813 C34.557377,162.733813 40.4098361,161.064748 44.5901639,158.004796 L44.5901639,159.952038 C44.5901639,163.846523 37.6229508,168.297362 27.8688525,168.297362 Z M27.8688525,157.170264 C18.1147541,157.170264 11.147541,152.719424 11.147541,148.82494 L11.147541,147.990408 C15.3278689,150.215827 21.7377049,151.606715 27.8688525,151.606715 C34,151.606715 40.4098361,150.494005 44.5901639,147.990408 L44.5901639,148.82494 C44.5901639,152.719424 37.6229508,157.170264 27.8688525,157.170264 Z M27.8688525,146.043165 C17.557377,146.043165 11.147541,142.426859 11.147541,140.479616 C11.147541,138.532374 17.557377,134.916067 27.8688525,134.916067 C38.1803279,134.916067 44.5901639,138.532374 44.5901639,140.479616 C44.5901639,142.426859 38.1803279,146.043165 27.8688525,146.043165 Z" id="Shape"></path>
                    <polygon id="Shape" points="147.704918 126.570743 147.704918 109.880096 89.1803279 109.880096 89.1803279 104.316547 83.6065574 104.316547 83.6065574 109.880096 25.0819672 109.880096 25.0819672 126.570743 30.6557377 126.570743 30.6557377 115.443645 83.6065574 115.443645 83.6065574 126.570743 89.1803279 126.570743 89.1803279 115.443645 142.131148 115.443645 142.131148 126.570743"></polygon>
                    <path d="M22.295082,90.4076739 L55.7377049,90.4076739 L55.7377049,84.8441247 L22.295082,84.8441247 C13.0983607,84.8441247 5.57377049,77.3333333 5.57377049,68.1534772 C5.57377049,56.470024 16.7213115,52.2973621 16.7213115,52.2973621 C17,36.7194245 30.6557377,28.0959233 44.3114754,33.381295 C44.0327869,15.5779376 62.704918,6.67625899 76.3606557,16.6906475 C76.3606557,16.6906475 85.2786885,6.67625899 100.04918,6.67625899 C120.393443,6.67625899 129.311475,23.6450839 129.311475,23.6450839 C152.163934,20.8633094 158.852459,42.5611511 154.672131,52.5755396 C154.672131,52.5755396 164.147541,57.5827338 164.147541,67.5971223 C164.147541,76.7769784 156.622951,84.2877698 147.42623,84.2877698 L117.04918,84.2877698 L117.04918,89.8513189 L147.704918,89.8513189 C159.967213,89.8513189 170,79.8369305 170,67.5971223 C170,60.6426859 166.655738,54.2446043 161.360656,49.793765 C164.704918,30.8776978 148.540984,16.41247 132.377049,17.5251799 C125.131148,6.95443645 113.147541,0.834532374 100.327869,0.834532374 C91.4098361,0.834532374 82.7704918,3.89448441 76.0819672,9.45803357 C67.7213115,4.45083933 45.704918,3.61630695 39.5737705,26.1486811 C25.3606557,24.2014388 12.8196721,34.4940048 11.4262295,48.4028777 C4.45901639,52.853717 0,60.0863309 0,68.1534772 C0,80.3932854 10.0327869,90.4076739 22.295082,90.4076739 Z" id="Shape"></path>
                </g>
            </g>
        </g>
    </g>
</svg>
