<?xml version="1.0" encoding="UTF-8"?>
<svg width="24px" height="24px" viewBox="0 0 24 24" version="1.1" xmlns="http://www.w3.org/2000/svg" xmlns:xlink="http://www.w3.org/1999/xlink">
    <!-- Generator: Sketch 51.2 (57519) - http://www.bohemiancoding.com/sketch -->
    <title>empty_data</title>
    <desc>Created with Sketch.</desc>
    <defs></defs>
    <g id="empty_data" stroke="none" stroke-width="1" fill="none" fill-rule="evenodd">
        <path d="M17.1491935,21 L7.06048387,21 C6.18951613,21 5.5,20.3104839 5.5,19.4395161 L5.5,5.73991935 C5.5,4.86895161 6.18951613,4.17943548 7.06048387,4.17943548 L8.22177419,4.17943548 C8.43951613,4.17943548 8.60282258,4.34274194 8.60282258,4.56048387 C8.60282258,4.77822581 8.43951613,4.95967742 8.22177419,4.95967742 L7.06048387,4.95967742 C6.625,4.95967742 6.28024194,5.30443548 6.28024194,5.73991935 L6.28024194,19.4395161 C6.28024194,19.875 6.625,20.2197581 7.06048387,20.2197581 L17.1491935,20.2197581 C17.5665323,20.2197581 17.9294355,19.875 17.9294355,19.4395161 L17.9294355,5.73991935 C17.9294355,5.30443548 17.5665323,4.95967742 17.1491935,4.95967742 L15.9879032,4.95967742 C15.7701613,4.95967742 15.5887097,4.77822581 15.5887097,4.56048387 C15.5887097,4.34274194 15.7701613,4.17943548 15.9879032,4.17943548 L17.1491935,4.17943548 C18.0020161,4.17943548 18.6915323,4.86895161 18.6915323,5.73991935 L18.6915323,19.4395161 C18.6915323,20.3104839 18.0020161,21 17.1491935,21 Z M16.3689516,6.1391129 C16.3689516,6.33870968 16.1875,6.52016129 15.9879032,6.52016129 L8.22177419,6.52016129 C8.00403226,6.52016129 7.82258065,6.33870968 7.82258065,6.1391129 C7.82258065,5.92137097 8.00403226,5.73991935 8.22177419,5.73991935 C8.22177419,5.73991935 8.65725806,5.68548387 9.00201613,5.34072581 L9.7641129,4.56048387 C9.7641129,4.56048387 10.0725806,4.17943548 10.5443548,4.17943548 L10.9435484,4.17943548 C10.9435484,3.52620968 11.4516129,3 12.1048387,3 C12.7399194,3 13.266129,3.52620968 13.266129,4.17943548 L13.6471774,4.17943548 C14.1552419,4.17943548 14.4274194,4.56048387 14.4274194,4.56048387 L15.2076613,5.34072581 C15.5524194,5.68548387 15.9879032,5.73991935 15.9879032,5.73991935 C16.1875,5.73991935 16.3689516,5.92137097 16.3689516,6.1391129 Z M12.1048387,3.78024194 C11.8870968,3.78024194 11.7056452,3.96169355 11.7056452,4.17943548 L12.4858871,4.17943548 C12.4858871,3.96169355 12.3225806,3.78024194 12.1048387,3.78024194 Z M14.1733871,5.34072581 C14.1733871,5.34072581 13.9193548,4.95967742 13.483871,4.95967742 L10.7258065,4.95967742 C10.2721774,4.95967742 10.0181452,5.34072581 10.0181452,5.34072581 L9.6733871,5.73991935 L14.5362903,5.73991935 L14.1733871,5.34072581 Z" id="Shape" fill="#000000" fill-rule="nonzero"></path>
    </g>
</svg>