<?xml version="1.0" encoding="UTF-8"?>
<svg width="240px" height="240px" viewBox="0 0 240 240" version="1.1" xmlns="http://www.w3.org/2000/svg" xmlns:xlink="http://www.w3.org/1999/xlink">
    <!-- Generator: Sketch 49.2 (51160) - http://www.bohemiancoding.com/sketch -->
    <title>error</title>
    <desc>Created with Sketch.</desc>
    <defs></defs>
    <g id="error" stroke="none" stroke-width="1" fill="none" fill-rule="evenodd">
        <g id="bomb" transform="translate(50.000000, 50.000000)" fill="#D8D8D8" fill-rule="nonzero">
            <path d="M115.034622,18.7851562 L99.7217948,34.0976562 L89.3036033,23.6796875 C85.8855614,20.2617187 80.3346614,20.2617187 76.9166196,23.6796875 L72.2407383,28.3554687 C67.3461024,26.9882812 62.1780231,26.25 56.8458778,26.25 C26.2475672,26.25 0.899368793,50.8320312 0.0243500785,81.4296875 C-0.905357305,113.613281 24.9076948,140 56.8732222,140 C88.3465515,140 113.749439,114.242188 113.749439,83.125 C113.749439,77.7929688 113.011142,72.625 111.643925,67.7304688 L116.319806,63.0546875 C119.737848,59.6367187 119.737848,54.0859375 116.319806,50.6679688 L105.901614,40.25 L121.214442,24.9375 L115.034622,18.7851562 Z M101.827309,65.1601563 C103.41328,70.765625 104.999251,75.4960938 104.999251,83.125 C104.999251,109.429688 83.5339486,131.25 56.8732222,131.25 C50.2558931,131.25 43.8299745,129.9375 37.8142208,127.339844 C19.9857145,119.628906 8.17296185,101.800781 8.77453722,81.6757813 C9.51283426,55.8085938 30.9507928,35 56.8732222,35 C64.5022916,35 69.2055172,36.5859375 74.8384501,38.171875 L83.1237836,29.8867188 L110.112642,56.875 C110.112642,56.875 109.620444,57.3945313 101.827309,65.1601563 Z M140,19.6875 C140,21.4921875 138.523406,22.96875 136.71868,22.96875 L130.156039,22.96875 C128.351313,22.96875 126.874719,21.4921875 126.874719,19.6875 C126.874719,17.8828125 128.351313,16.40625 130.156039,16.40625 L136.71868,16.40625 C138.523406,16.40625 140,17.8828125 140,19.6875 Z M123.593399,3.28125 L123.593399,9.84375 C123.593399,11.6484375 122.116805,13.125 120.312079,13.125 C118.507353,13.125 117.030759,11.6484375 117.030759,9.84375 L117.030759,3.28125 C117.030759,1.4765625 118.507353,0 120.312079,0 C122.116805,0 123.593399,1.4765625 123.593399,3.28125 Z M124.960616,15.0390625 C123.675432,13.7539063 123.675432,11.6757813 124.960616,10.390625 L129.609153,5.7421875 C130.894337,4.45703125 132.972506,4.45703125 134.25769,5.7421875 C135.542873,7.02734375 135.542873,9.10546875 134.25769,10.390625 L129.609153,15.0390625 C128.323969,16.3242188 126.2458,16.3242188 124.960616,15.0390625 Z M106.393813,10.4179688 C105.108629,9.1328125 105.108629,7.0546875 106.393813,5.76953125 C107.678996,4.484375 109.757166,4.484375 111.042349,5.76953125 L115.690886,10.4179688 C116.97607,11.703125 116.97607,13.78125 115.690886,15.0664063 C114.405703,16.3515625 112.327533,16.3515625 111.042349,15.0664063 L106.393813,10.4179688 Z M134.230345,28.9570313 C135.515529,30.2421875 135.515529,32.3203125 134.230345,33.6054688 C132.945162,34.890625 130.866992,34.890625 129.581808,33.6054688 L124.933272,28.9570313 C123.648088,27.671875 123.648088,25.59375 124.933272,24.3085937 C126.218455,23.0234375 128.296625,23.0234375 129.581808,24.3085937 L134.230345,28.9570313 Z M52.4981286,52.5 C52.4981286,54.90625 50.5293365,56.875 48.123035,56.875 C38.4704848,56.875 30.6226607,64.7226562 30.6226607,74.375 C30.6226607,76.78125 28.6538686,78.75 26.2475672,78.75 C23.8412657,78.75 21.8724736,76.78125 21.8724736,74.375 C21.8724736,59.9101562 33.6578819,48.125 48.123035,48.125 C50.5293365,48.125 52.4981286,50.09375 52.4981286,52.5 Z" id="Shape"></path>
        </g>
    </g>
</svg>