<?xml version="1.0" encoding="UTF-8"?>
<svg width="240px" height="240px" viewBox="0 0 240 240" version="1.1" xmlns="http://www.w3.org/2000/svg" xmlns:xlink="http://www.w3.org/1999/xlink">
    <!-- Generator: Sketch 49.2 (51160) - http://www.bohemiancoding.com/sketch -->
    <title>no-connection</title>
    <desc>Created with Sketch.</desc>
    <defs></defs>
    <g id="no-connection" stroke="none" stroke-width="1" fill="none" fill-rule="evenodd">
        <g id="battery-bolt" transform="translate(50.000000, 71.000000)" fill="#D8D8D8" fill-rule="nonzero">
            <path d="M140,33.25 L140,64.75 C140,67.6495312 137.649531,70 134.75,70 L133,70 L133,73.5 C133,79.2990625 128.299062,84 122.5,84 L87.6509375,84 L91.5945625,77 L122.5,77 C124.430031,77 126,75.4300312 126,73.5 L126,63 L133,63 L133,35 L126,35 L126,24.5 C126,22.5699687 124.430031,21 122.5,21 L102.64275,21 C99.7502187,18.9864062 96.4676562,17.86225 93.1468125,17.574375 L94.0154687,14.2504687 C94.0375625,14.167125 94.05725,14.0835625 94.07825,14 L122.5,14 C128.299062,14 133,18.7009375 133,24.5 L133,28 L134.75,28 C137.649531,28 140,30.3504687 140,33.25 Z M7,73.5 L7,24.5 C7,22.5699687 8.56996875,21 10.5,21 L31.366125,21 L32.0683125,14 L10.5,14 C4.7009375,14 0,18.7009375 0,24.5 L0,73.5 C0,79.2990625 4.7009375,84 10.5,84 L43.2543125,84 C43.26175,83.9709062 43.2680937,83.9415937 43.2755313,83.9125 L44.9620938,77 L10.5,77 C8.56996875,77 7,75.4300312 7,73.5 Z M99.44725,41.6694688 L70.364,93.2929375 C68.6966875,96.27625 65.5834375,98 62.3404687,98 C56.3696875,98 51.918125,92.3341562 53.458125,86.475375 L60.8943125,56 L48.563375,56 C43.1515,56 38.9055625,51.3377812 39.417,45.945375 L43.190875,8.320375 C43.6377812,3.60325 47.5989062,0 52.3370312,0 L74.990125,0 C81.039875,0 85.4269063,5.747 83.8632812,11.570125 L79.5692188,28 L91.4272187,28 C98.4342187,28 102.865219,35.553 99.44725,41.6694688 Z M91.427,35 L70.5044375,35 L77.091,9.8 L77.0969062,9.77725 L77.1030313,9.75471875 C77.4749063,8.3698125 76.4297188,7 74.9903437,7 L52.3370313,7 C51.2072539,6.99579127 50.2616912,7.85587731 50.1591562,8.981 L50.1574062,9.00003125 L50.1554375,9.0190625 L46.3841875,46.6180312 C46.2697813,47.893125 47.2786562,49.0002187 48.5629375,49.0002187 L69.8072812,49.0002187 L60.2581875,88.1350312 L60.2435312,88.1951875 L60.2277812,88.255125 C59.850875,89.6890312 60.9658437,91 62.3400312,91 C62.9617187,91 63.7907812,90.7053437 64.2527812,89.87825 L64.2586875,89.86775 L64.2645937,89.85725 L93.3384375,38.250625 C94.1462812,36.7994375 93.0934375,35 91.427,35 Z" id="Shape"></path>
        </g>
    </g>
</svg>