<?xml version="1.0" encoding="UTF-8"?>
<svg width="240px" height="240px" viewBox="0 0 240 240" version="1.1" xmlns="http://www.w3.org/2000/svg" xmlns:xlink="http://www.w3.org/1999/xlink">
    <!-- Generator: Sketch 49.2 (51160) - http://www.bohemiancoding.com/sketch -->
    <title>timeout</title>
    <desc>Created with Sketch.</desc>
    <defs></defs>
    <g id="timeout" stroke="none" stroke-width="1" fill="none" fill-rule="evenodd">
        <g id="exclamation-circle" transform="translate(50.000000, 50.000000)" fill="#D8D8D8" fill-rule="nonzero">
            <path d="M70,9.03225806 C103.481734,9.03225806 130.967742,36.1502016 130.967742,70 C130.967742,103.670847 103.69879,130.967742 70,130.967742 C36.3424194,130.967742 9.03225806,103.712339 9.03225806,70 C9.03225806,36.3539919 36.2989516,9.03225806 70,9.03225806 Z M70,0 C31.3427823,0 0,31.3540726 0,70 C0,108.668508 31.3427823,140 70,140 C108.657218,140 140,108.668508 140,70 C140,31.3540726 108.657218,0 70,0 Z M66.7568548,33.8709677 L73.2428629,33.8709677 C75.1687097,33.8709677 76.7072984,35.4747581 76.6271371,37.3991935 L74.6513306,84.8185484 C74.5756855,86.6329032 73.0831048,88.0645161 71.2670565,88.0645161 L68.7326613,88.0645161 C66.9168952,88.0645161 65.4240323,86.632621 65.3483871,84.8185484 L63.3725806,37.3991935 C63.2927016,35.4747581 64.8310081,33.8709677 66.7568548,33.8709677 Z M70,93.7096774 C65.6351613,93.7096774 62.0967742,97.2480645 62.0967742,101.612903 C62.0967742,105.977742 65.6351613,109.516129 70,109.516129 C74.3648387,109.516129 77.9032258,105.977742 77.9032258,101.612903 C77.9032258,97.2480645 74.3648387,93.7096774 70,93.7096774 Z" id="Shape"></path>
        </g>
    </g>
</svg>