<?xml version="1.0" encoding="UTF-8"?>
<svg width="240px" height="240px" viewBox="0 0 240 240" version="1.1" xmlns="http://www.w3.org/2000/svg" xmlns:xlink="http://www.w3.org/1999/xlink">
    <!-- Generator: Sketch 49.2 (51160) - http://www.bohemiancoding.com/sketch -->
    <title>connecting</title>
    <desc>Created with Sketch.</desc>
    <defs></defs>
    <g id="connecting" stroke="none" stroke-width="1" fill="none" fill-rule="evenodd">
        <g id="watch" transform="translate(52.000000, 29.000000)" fill="#D8D8D8" fill-rule="nonzero">
            <path d="M114.166667,40.1324219 L114.166667,8.53125 C114.166667,3.8390625 110.313542,0 105.604167,0 L31.3958333,0 C26.6864583,0 22.8333333,3.8390625 22.8333333,8.53125 L22.8333333,40.1324219 C8.81223958,52.609375 0,70.7738281 0,91 C0,111.226172 8.81223958,129.390625 22.8333333,141.867578 L22.8333333,173.46875 C22.8333333,178.160937 26.6864583,182 31.3958333,182 L105.604167,182 C110.313542,182 114.166667,178.160937 114.166667,173.46875 L114.166667,141.867578 C128.18776,129.390625 137,111.226172 137,91 C137,70.7738281 128.18776,52.609375 114.166667,40.1324219 Z M37.1041667,14.21875 L99.8958333,14.21875 L99.8958333,30.3214844 C90.4770833,25.4871094 79.8096354,22.75 68.5,22.75 C57.1903646,22.75 46.5229167,25.4871094 37.1041667,30.3214844 L37.1041667,14.21875 Z M99.8958333,167.78125 L37.1041667,167.78125 L37.1041667,151.678516 C46.5229167,156.512891 57.1903646,159.25 68.5,159.25 C79.8096354,159.25 90.4770833,156.512891 99.8958333,151.678516 L99.8958333,167.78125 Z M68.5,142.1875 C40.3507812,142.1875 17.125,119.508594 17.125,91 C17.125,63.0601563 39.7799479,39.8125 68.5,39.8125 C96.6492187,39.8125 119.875,62.4914063 119.875,91 C119.875,118.939844 97.2200521,142.1875 68.5,142.1875 Z M82.1643229,116.735937 L60.365625,101.948437 C59.1882813,101.166406 58.5104167,99.8511719 58.5104167,98.4292969 L58.5104167,58.296875 C58.5104167,55.9507812 60.4369792,54.03125 62.7916667,54.03125 L74.2083333,54.03125 C76.5630208,54.03125 78.4895833,55.9507812 78.4895833,58.296875 L78.4895833,90.146875 L93.4382812,100.277734 C95.4005208,101.592969 95.9,104.258984 94.5799479,106.214062 L88.1580729,115.598437 C86.8023437,117.553516 84.1265625,118.051172 82.1643229,116.735937 Z" id="Shape"></path>
        </g>
    </g>
</svg>