<?xml version="1.0" encoding="UTF-8"?>
<svg width="240px" height="240px" viewBox="0 0 240 240" version="1.1" xmlns="http://www.w3.org/2000/svg" xmlns:xlink="http://www.w3.org/1999/xlink">
    <!-- Generator: Sketch 49.2 (51160) - http://www.bohemiancoding.com/sketch -->
    <title>error</title>
    <desc>Created with Sketch.</desc>
    <defs></defs>
    <g id="error" stroke="none" stroke-width="1" fill="none" fill-rule="evenodd">
        <g id="bomb" transform="translate(50.000000, 50.000000)" fill="#D8D8D8" fill-rule="nonzero">
            <path d="M105.41407,39.2466297 L120.766965,23.8937351 L116.106265,19.233035 L100.75337,34.5859295 L86.4422794,20.2748386 C84.7424946,18.5750538 81.9460745,18.5750538 80.2462898,20.2748386 L72.460179,28.0609494 C67.5527359,26.6901552 62.371134,25.9499264 57.0250368,25.9499264 C25.5241872,25.9499264 0,51.4741135 0,82.9749632 C0,114.475813 25.5241872,140 57.0250368,140 C88.5258865,140 114.050074,114.475813 114.050074,82.9749632 C114.050074,77.628866 113.309845,72.4472641 111.939051,67.539821 L119.725161,59.7537102 C121.424946,58.0539255 121.424946,55.2575054 119.725161,53.5577206 L105.41407,39.2466297 Z M96.9852454,63.8672087 C99.1499548,71.5943993 100.684432,75.8964167 100.684432,83.1577838 C100.684432,107.380608 81.0650407,127 56.8422162,127 C32.6193917,127 13,107.380608 13,83.1577838 C13,58.9349593 32.6193917,39.3155676 56.8422162,39.3155676 C64.0487805,39.3155676 68.1863896,40.7952424 76.1327913,43.0147546 L83.1475459,36 L104,56.8524541 L96.9852454,63.8672087 Z M140,19.5 C140,21.425 138.5375,23 136.75,23 L130.25,23 C128.4625,23 127,21.425 127,19.5 C127,17.575 128.4625,16 130.25,16 L136.75,16 C138.5375,16 140,17.575 140,19.5 Z M124,3.25 L124,9.75 C124,11.5375 122.425,13 120.5,13 C118.575,13 117,11.5375 117,9.75 L117,3.25 C117,1.4625 118.575,0 120.5,0 C122.425,0 124,1.4625 124,3.25 Z M124.94458,15.0554202 C123.68514,13.7959805 123.68514,11.7594397 124.94458,10.5 L129.5,5.94457978 C130.75944,4.68514007 132.795981,4.68514007 134.05542,5.94457978 C135.31486,7.20401949 135.31486,9.24056029 134.05542,10.5 L129.5,15.0554202 C128.24056,16.3148599 126.204019,16.3148599 124.94458,15.0554202 Z M105.94458,10.5 C104.68514,9.24056029 104.68514,7.20401949 105.94458,5.94457978 C107.204019,4.68514007 109.24056,4.68514007 110.5,5.94457978 L115.05542,10.5 C116.31486,11.7594397 116.31486,13.7959805 115.05542,15.0554202 C113.795981,16.3148599 111.75944,16.3148599 110.5,15.0554202 L105.94458,10.5 Z M134.05542,28.5 C135.31486,29.7594397 135.31486,31.7959805 134.05542,33.0554202 C132.795981,34.3148599 130.75944,34.3148599 129.5,33.0554202 L124.94458,28.5 C123.68514,27.2405603 123.68514,25.2040195 124.94458,23.9445798 C126.204019,22.6851401 128.24056,22.6851401 129.5,23.9445798 L134.05542,28.5 Z M59,56.5625 C59,60.1992188 56.0742188,63.125 52.4375,63.125 C43.9882812,63.125 37.125,69.9882812 37.125,78.4375 C37.125,82.0742188 34.1992188,85 30.5625,85 C26.9257812,85 24,82.0742188 24,78.4375 C24,62.7695312 36.7695312,50 52.4375,50 C56.0742188,50 59,52.9257812 59,56.5625 Z" id="Shape"></path>
        </g>
    </g>
</svg>