<svg width="134px" height="142px" viewBox="0 0 134 142" version="1.1" xmlns="http://www.w3.org/2000/svg" xmlns:xlink="http://www.w3.org/1999/xlink">
    <g id="hydra" stroke="none" stroke-width="1" fill="none" fill-rule="evenodd">
        <g id="loading-page" transform="translate(-53.000000, -49.000000)" fill="#D8D8D8" fill-rule="nonzero">
            <g id="noun_451521_cc" transform="translate(53.000000, 49.000000)">
                <path d="M126.877076,111.405152 L126.877076,30.2622951 C126.877076,26.049961 123.315615,22.5027322 119.086379,22.5027322 L109.292359,22.5027322 C107.289037,22.5027322 105.730897,20.9508197 105.730897,18.9555035 C105.730897,16.9601874 107.289037,15.4082748 109.292359,15.4082748 L119.086379,15.4082748 C127.322259,15.4082748 134,22.0593286 134,30.2622951 L134,111.626854 C134,119.82982 127.322259,126.480874 119.086379,126.480874 L51.641196,126.480874 L60.9900332,135.79235 C62.3255814,137.12256 62.3255814,139.339578 60.9900332,140.891491 C60.3222591,141.556596 59.4318937,142 58.5415282,142 C57.6511628,142 56.7607973,141.556596 56.0930233,140.891491 L40.7342193,125.594067 C39.3986711,124.263856 39.3986711,122.046838 40.7342193,120.494926 L56.0930233,105.197502 C57.4285714,103.867291 59.654485,103.867291 61.2126246,105.197502 C62.5481728,106.527713 62.5481728,108.744731 61.2126246,110.296643 L51.8637874,119.608119 L119.531561,119.608119 C123.315615,119.164715 126.877076,115.617486 126.877076,111.405152 Z M0,30.2622951 L0,111.626854 C0,119.82982 6.67774086,126.480874 14.9136213,126.480874 L24.7076412,126.480874 C26.7109635,126.480874 28.269103,124.928962 28.269103,122.933646 C28.269103,120.938329 26.7109635,119.386417 24.7076412,119.386417 L14.9136213,119.386417 C10.6843854,119.386417 7.12292359,115.839188 7.12292359,111.626854 L7.12292359,30.2622951 C7.12292359,26.049961 10.6843854,22.5027322 14.9136213,22.5027322 L82.5813953,22.5027322 L73.2325581,31.8142077 C71.89701,33.1444184 71.89701,35.3614364 73.2325581,36.9133489 C73.9003322,37.5784543 74.7906977,38.0218579 75.6810631,38.0218579 C76.5714286,38.0218579 77.461794,37.5784543 78.1295681,36.9133489 L93.4883721,21.6159251 C94.8239203,20.2857143 94.8239203,18.0686963 93.4883721,16.5167838 L78.1295681,0.99765808 C76.7940199,-0.332552693 74.5681063,-0.332552693 73.0099668,0.99765808 C71.6744186,2.32786885 71.6744186,4.54488681 73.0099668,6.09679938 L82.358804,15.4082748 L14.9136213,15.4082748 C6.67774086,15.4082748 0,22.0593286 0,30.2622951 Z" id="Shape"></path>
            </g>
        </g>
    </g>
</svg>
