<?xml version="1.0" encoding="UTF-8"?>
<svg width="240px" height="240px" viewBox="0 0 240 240" version="1.1" xmlns="http://www.w3.org/2000/svg" xmlns:xlink="http://www.w3.org/1999/xlink">
    <!-- Generator: Sketch 49.2 (51160) - http://www.bohemiancoding.com/sketch -->
    <title>loading-page</title>
    <desc>Created with Sketch.</desc>
    <defs></defs>
    <g id="loading-page" stroke="none" stroke-width="1" fill="none" fill-rule="evenodd">
        <g id="noun_451521_cc" transform="translate(54.000000, 50.000000)" fill="#D8D8D8" fill-rule="nonzero">
            <path d="M125.090075,109.836066 L125.090075,29.8360656 C125.090075,25.6830601 121.578775,22.1857923 117.409106,22.1857923 L107.75303,22.1857923 C105.777923,22.1857923 104.241729,20.6557377 104.241729,18.6885246 C104.241729,16.7213115 105.777923,15.1912568 107.75303,15.1912568 L117.409106,15.1912568 C125.528988,15.1912568 132.112676,21.7486339 132.112676,29.8360656 L132.112676,110.054645 C132.112676,118.142077 125.528988,124.699454 117.409106,124.699454 L50.9138552,124.699454 L60.1310187,133.879781 C61.4477563,135.191257 61.4477563,137.377049 60.1310187,138.907104 C59.4726499,139.562842 58.5948248,140 57.7169997,140 C56.8391746,140 55.9613495,139.562842 55.3029807,138.907104 L40.1604979,123.825137 C38.8437602,122.513661 38.8437602,120.327869 40.1604979,118.797814 L55.3029807,103.715847 C56.6197183,102.404372 58.814281,102.404372 60.3504749,103.715847 C61.6672126,105.027322 61.6672126,107.213115 60.3504749,108.743169 L51.1333115,117.923497 L117.848018,117.923497 C121.578775,117.486339 125.090075,113.989071 125.090075,109.836066 Z M0,29.8360656 L0,110.054645 C0,118.142077 6.58368818,124.699454 14.7035703,124.699454 L24.3596462,124.699454 C26.3347527,124.699454 27.8709466,123.169399 27.8709466,121.202186 C27.8709466,119.234973 26.3347527,117.704918 24.3596462,117.704918 L14.7035703,117.704918 C10.5339011,117.704918 7.02260072,114.20765 7.02260072,110.054645 L7.02260072,29.8360656 C7.02260072,25.6830601 10.5339011,22.1857923 14.7035703,22.1857923 L81.4182771,22.1857923 L72.2011137,31.3661202 C70.884376,32.6775956 70.884376,34.863388 72.2011137,36.3934426 C72.8594825,37.0491803 73.7373076,37.4863388 74.6151327,37.4863388 C75.4929577,37.4863388 76.3707828,37.0491803 77.0291517,36.3934426 L92.1716345,21.3114754 C93.4883721,20 93.4883721,17.8142077 92.1716345,16.284153 L77.0291517,0.983606557 C75.712414,-0.327868852 73.5178513,-0.327868852 71.9816574,0.983606557 C70.6649198,2.29508197 70.6649198,4.48087432 71.9816574,6.01092896 L81.1988208,15.1912568 L14.7035703,15.1912568 C6.58368818,15.1912568 0,21.7486339 0,29.8360656 Z" id="Shape"></path>
        </g>
    </g>
</svg>