<svg width="134px" height="169px" viewBox="0 0 134 169" version="1.1" xmlns="http://www.w3.org/2000/svg" xmlns:xlink="http://www.w3.org/1999/xlink">
    <g stroke="none" stroke-width="1" fill="none" fill-rule="evenodd">
        <g id="no-connection" transform="translate(-54.000000, -36.000000)" fill="#D8D8D8" fill-rule="nonzero">
            <g transform="translate(54.000000, 36.000000)">
                <g>
                    <g id="Shape">
                        <path d="M104.11184,0.199585047 L96.811561,9.13851608 L98.3077845,10.3556171 L32.7402509,12.9895486 L34.2667013,11.2824864 L25.6473897,3.60278682 L16.6742168,13.6345082 L8.81057387,13.9507463 L9.13733537,22.0611125 L0,32.2764392 L8.6198327,39.9561387 L9.80545053,38.6303308 L15.0284229,168.149127 L128.579344,163.588119 L123.217225,30.6213898 L126.660989,33.4243631 L133.96231,24.4854321 L122.596534,15.2385849 L122.360975,9.38973822 L115.734543,9.65604406 L104.11184,0.199585047 Z M118.783275,12.1360175 L119.862056,12.0928468 L119.900101,13.0452024 L118.783275,12.1360175 Z M12.3007201,35.8403607 L30.3257596,15.6895364 L101.356516,12.8366308 L120.520791,28.4285274 L125.870403,161.093582 L17.5273406,165.446018 L12.3007201,35.8403607 Z M11.518994,16.4447632 L14.2592045,16.334496 L11.6331261,19.2706222 L11.518994,16.4447632 Z M74.4109401,91.395198 L95.0516351,109.785387 L89.8161554,115.639434 L69.1744182,97.2492458 L50.7480923,117.849981 L44.8825412,112.623729 L63.3088665,92.0235136 L42.6676507,73.6333249 L47.904173,67.7787566 L68.5453891,86.1694658 L86.9722356,65.5687299 L92.8367444,70.7944625 L74.4109401,91.395198 Z"></path>
                    </g>
                </g>
            </g>
        </g>
    </g>
</svg>
