<?xml version="1.0" encoding="UTF-8"?>
<svg width="240px" height="240px" viewBox="0 0 240 240" version="1.1" xmlns="http://www.w3.org/2000/svg" xmlns:xlink="http://www.w3.org/1999/xlink">
    <!-- Generator: Sketch 49.2 (51160) - http://www.bohemiancoding.com/sketch -->
    <title>sleep</title>
    <desc>Created with Sketch.</desc>
    <defs></defs>
    <g id="sleep" stroke="none" stroke-width="1" fill="none" fill-rule="evenodd">
        <path d="M108,76 C121.36825,76 132.81975,84.1985 137.6065,95.84075 C140.40275,93.44825 144.03125,92 148,92 C156.8365,92 164,99.1635 164,108 C164,110.95725 163.1945,113.725 161.79575,116.10175 C162.528575,116.034404 163.264087,116.000452 164,116 C177.25475,116 188,126.74525 188,140 C188,153.25475 177.25475,164 164,164 L80,164 C64.536,164 52,151.464 52,136 C52,121.893 62.433,110.22475 76.0035,108.28525 C76.00275,108.19 76,108.09525 76,108 C76,90.327 90.327,76 108,76 Z M108,64 C86.85325,64 69.125,78.933 64.932,98.9435 C49.97225,105.0325 40,119.604 40,136 C40,158.0935 57.9105,176 80,176 L164,176 C183.886,176 200,159.87825 200,140 C200,124.54875 190.203,111.04875 175.932,106.02725 C174.9295,91.529 162.858,80 148,80 C146.1105,80 144.23725,80.19175 142.40775,80.5655 C134.43075,70.568 122.02275,64 108,64 Z" id="Shape" fill="#D8D8D8" fill-rule="nonzero"></path>
        <rect id="Rectangle-4-Copy" fill="#D8D8D8" transform="translate(111.606609, 126.971832) rotate(42.000000) translate(-111.606609, -126.971832) " x="106.606609" y="35.9718322" width="10" height="182" rx="5"></rect>
    </g>
</svg>