<?xml version="1.0" encoding="UTF-8"?>
<svg width="240px" height="240px" viewBox="0 0 240 240" version="1.1" xmlns="http://www.w3.org/2000/svg" xmlns:xlink="http://www.w3.org/1999/xlink">
    <!-- Generator: Sketch 49.2 (51160) - http://www.bohemiancoding.com/sketch -->
    <title>timeout</title>
    <desc>Created with Sketch.</desc>
    <defs></defs>
    <g id="timeout" stroke="none" stroke-width="1" fill="none" fill-rule="evenodd">
        <g id="Group-3" transform="translate(51.000000, 51.000000)" fill="#D8D8D8" fill-rule="nonzero">
            <rect id="Rectangle-path" x="65" y="92" width="8" height="8" rx="1"></rect>
            <rect id="Rectangle-path" x="65" y="40" width="8" height="46" rx="1"></rect>
            <path d="M121,27 L99.4193548,27 C98.0831821,27 97,25.9179088 97,24.5830816 C97,23.2482544 98.0831821,22.1661631 99.4193548,22.1661631 L116.16129,22.1661631 L116.16129,5.41691843 C116.16129,4.08209124 117.244472,3 118.580645,3 C119.916818,3 121,4.08209124 121,5.41691843 L121,26.9758308 L121,27 Z" id="Shape"></path>
            <path d="M69.0528363,137.999904 C37.8012752,137.986475 10.4516787,117.015954 2.36115126,86.8635244 C-5.72937617,56.7110945 7.45480393,24.8887989 34.5106269,9.26521283 C61.5664499,-6.35837326 95.7533468,-1.89085822 117.874992,20.1591982 C118.713226,21.136917 118.656868,22.5943613 117.74563,23.5045811 C116.834393,24.4148009 115.375318,24.4710956 114.396506,23.6337987 C89.3328364,-1.34682446 48.7458527,-1.3170769 23.71891,23.7002594 C-1.30803283,48.7175956 -1.30803283,89.2592525 23.71891,114.276589 C48.7458527,139.293925 89.3328364,139.323673 114.396506,114.343049 C130.587225,98.1232337 136.920581,74.5263947 131.024163,52.3916622 C130.54227,51.4968754 130.659574,50.3983823 131.319578,49.6252629 C131.979583,48.8521435 133.046965,48.562911 134.00763,48.896872 C134.968295,49.2308329 135.625276,50.119515 135.662145,51.1348918 C142.017831,74.9656499 135.205122,100.374482 117.776312,117.842292 C104.870837,130.774997 87.3334129,138.030484 69.0528363,137.999904 Z" id="Shape"></path>
        </g>
    </g>
</svg>